<?xml version="1.0" encoding="UTF-8" standalone="no"?>
<!DOCTYPE svg PUBLIC "-//W3C//DTD SVG 1.1//EN"
 "http://www.w3.org/Graphics/SVG/1.1/DTD/svg11.dtd">
<!-- Generated by graphviz version 9.0.0 (20230911.1827)
 -->
<!-- Title: 11MarAulaGrupo Pages: 1 -->
<svg width="752pt" height="404pt"
 viewBox="0.00 0.00 752.12 404.00" xmlns="http://www.w3.org/2000/svg" xmlns:xlink="http://www.w3.org/1999/xlink">
<g id="graph0" class="graph" transform="scale(1 1) rotate(0) translate(4 400)">
<title>11MarAulaGrupo</title>
<polygon fill="white" stroke="none" points="-4,4 -4,-400 748.12,-400 748.12,4 -4,4"/>
<!-- Template_Mobile -->
<g id="node1" class="node">
<title>Template_Mobile</title>
<polygon fill="none" stroke="black" points="517.88,-180 383.62,-180 383.62,-144 517.88,-144 517.88,-180"/>
<text text-anchor="start" x="395.62" y="-156.95" font-family="Helvetica,sans-Serif" font-size="14.00">Template_Mobile</text>
</g>
<!-- Login -->
<g id="node2" class="node">
<title>Login</title>
<polygon fill="none" stroke="black" points="432.38,-108 373.12,-108 373.12,-72 432.38,-72 432.38,-108"/>
<text text-anchor="start" x="385.12" y="-84.95" font-family="Helvetica,sans-Serif" font-size="14.00">Login</text>
</g>
<!-- Template_Mobile&#45;&gt;Login -->
<g id="edge1" class="edge">
<title>Template_Mobile&#45;&gt;Login</title>
<path fill="none" stroke="black" d="M438.88,-143.7C433.48,-135.81 426.96,-126.3 420.95,-117.55"/>
<polygon fill="black" stroke="black" points="423.88,-115.62 415.33,-109.35 418.1,-119.58 423.88,-115.62"/>
</g>
<!-- Login&#45;&gt;Login -->
<g id="edge2" class="edge">
<title>Login&#45;&gt;Login</title>
<path fill="none" stroke="black" d="M432.52,-103.5C442.44,-103.5 450.38,-99 450.38,-90 450.38,-84.8 447.72,-81.1 443.57,-78.9"/>
<polygon fill="black" stroke="black" points="444.51,-75.53 433.99,-76.82 443.02,-82.37 444.51,-75.53"/>
</g>
<!-- Home -->
<g id="node3" class="node">
<title>Home</title>
<polygon fill="none" stroke="black" points="376.88,-36 314.62,-36 314.62,0 376.88,0 376.88,-36"/>
<text text-anchor="start" x="326.62" y="-12.95" font-family="Helvetica,sans-Serif" font-size="14.00">Home</text>
</g>
<!-- Login&#45;&gt;Home -->
<g id="edge3" class="edge">
<title>Login&#45;&gt;Home</title>
<path fill="none" stroke="black" d="M382.74,-71.7C375.43,-63.73 367.38,-54.1 360.58,-45.26"/>
<polygon fill="black" stroke="black" points="363.45,-43.27 354.68,-37.32 357.83,-47.44 363.45,-43.27"/>
</g>
<!-- ReporPassword -->
<g id="node4" class="node">
<title>ReporPassword</title>
<polygon fill="none" stroke="black" points="522.12,-36 395.38,-36 395.38,0 522.12,0 522.12,-36"/>
<text text-anchor="start" x="407.38" y="-12.95" font-family="Helvetica,sans-Serif" font-size="14.00">ReporPassword</text>
</g>
<!-- Login&#45;&gt;ReporPassword -->
<g id="edge4" class="edge">
<title>Login&#45;&gt;ReporPassword</title>
<path fill="none" stroke="black" d="M410.68,-71.7C416.35,-63.56 424.04,-53.69 431.66,-44.7"/>
<polygon fill="black" stroke="black" points="434.23,-47.08 438.18,-37.24 428.96,-42.47 434.23,-47.08"/>
</g>
<!-- Home&#45;&gt;Login -->
<g id="edge5" class="edge">
<title>Home&#45;&gt;Login</title>
<path fill="none" stroke="black" d="M365.57,-36.1C372.87,-44.04 380.93,-53.67 387.75,-62.51"/>
<polygon fill="black" stroke="black" points="384.9,-64.54 393.67,-70.48 390.52,-60.37 384.9,-64.54"/>
</g>
<!-- ReporPassword&#45;&gt;Login -->
<g id="edge6" class="edge">
<title>ReporPassword&#45;&gt;Login</title>
<path fill="none" stroke="black" d="M450.96,-36.1C445.32,-44.21 437.65,-54.08 430.03,-63.08"/>
<polygon fill="black" stroke="black" points="427.44,-60.72 423.5,-70.56 432.72,-65.32 427.44,-60.72"/>
</g>
<!-- CamaraGYmM -->
<g id="node5" class="node">
<title>CamaraGYmM</title>
<polygon fill="none" stroke="black" points="288.25,-252 171.25,-252 171.25,-216 288.25,-216 288.25,-252"/>
<text text-anchor="start" x="183.25" y="-228.95" font-family="Helvetica,sans-Serif" font-size="14.00">CamaraGYmM</text>
</g>
<!-- CamaraGYmM&#45;&gt;Login -->
<g id="edge7" class="edge">
<title>CamaraGYmM&#45;&gt;Login</title>
<path fill="none" stroke="black" d="M228.7,-215.72C228.47,-195.99 231.15,-163.87 248.75,-144 277.3,-111.77 326.38,-99.13 361.46,-94.18"/>
<polygon fill="black" stroke="black" points="361.77,-97.66 371.27,-92.96 360.91,-90.72 361.77,-97.66"/>
</g>
<!-- Galeria -->
<g id="node6" class="node">
<title>Galeria</title>
<polygon fill="none" stroke="black" points="327.25,-180 258.25,-180 258.25,-144 327.25,-144 327.25,-180"/>
<text text-anchor="start" x="270.25" y="-156.95" font-family="Helvetica,sans-Serif" font-size="14.00">Galeria</text>
</g>
<!-- CamaraGYmM&#45;&gt;Galeria -->
<g id="edge8" class="edge">
<title>CamaraGYmM&#45;&gt;Galeria</title>
<path fill="none" stroke="black" d="M245.32,-215.7C252.72,-207.47 261.72,-197.48 269.87,-188.42"/>
<polygon fill="black" stroke="black" points="272.26,-191 276.34,-181.23 267.05,-186.32 272.26,-191"/>
</g>
<!-- &#39;Paginaconfirmacao&#39; -->
<g id="node7" class="node">
<title>&#39;Paginaconfirmacao&#39;</title>
<polygon fill="none" stroke="black" points="151.5,-108 0,-108 0,-72 151.5,-72 151.5,-108"/>
<text text-anchor="start" x="12" y="-84.95" font-family="Helvetica,sans-Serif" font-size="14.00">&#39;Paginaconfirmacao&#39;</text>
</g>
<!-- CamaraGYmM&#45;&gt;&#39;Paginaconfirmacao&#39; -->
<g id="edge9" class="edge">
<title>CamaraGYmM&#45;&gt;&#39;Paginaconfirmacao&#39;</title>
<path fill="none" stroke="black" d="M170.85,-224.17C122.07,-215.5 58.32,-200.59 42.75,-180 28.7,-161.42 40.23,-136.22 53.37,-117.38"/>
<polygon fill="black" stroke="black" points="56.17,-119.49 59.36,-109.39 50.56,-115.29 56.17,-119.49"/>
</g>
<!-- Galeria_Imagens_1 -->
<g id="node8" class="node">
<title>Galeria_Imagens_1</title>
<polygon fill="none" stroke="black" points="201.38,-180 52.12,-180 52.12,-144 201.38,-144 201.38,-180"/>
<text text-anchor="start" x="64.12" y="-156.95" font-family="Helvetica,sans-Serif" font-size="14.00">Galeria_Imagens_1</text>
</g>
<!-- CamaraGYmM&#45;&gt;Galeria_Imagens_1 -->
<g id="edge10" class="edge">
<title>CamaraGYmM&#45;&gt;Galeria_Imagens_1</title>
<path fill="none" stroke="black" d="M204.02,-215.52C191.15,-206.76 175.37,-196.04 161.44,-186.58"/>
<polygon fill="black" stroke="black" points="163.64,-183.84 153.4,-181.11 159.7,-189.63 163.64,-183.84"/>
</g>
<!-- Galeria&#45;&gt;Login -->
<g id="edge11" class="edge">
<title>Galeria&#45;&gt;Login</title>
<path fill="none" stroke="black" d="M320.22,-143.52C334.11,-134.68 351.15,-123.84 366.13,-114.3"/>
<polygon fill="black" stroke="black" points="367.79,-117.39 374.35,-109.07 364.03,-111.49 367.79,-117.39"/>
</g>
<!-- Galeria_Imagens_1&#45;&gt;Login -->
<g id="edge12" class="edge">
<title>Galeria_Imagens_1&#45;&gt;Login</title>
<path fill="none" stroke="black" d="M195.68,-143.52C247.86,-130.28 317.79,-112.55 361.55,-101.45"/>
<polygon fill="black" stroke="black" points="362.33,-104.86 371.16,-99.01 360.61,-98.08 362.33,-104.86"/>
</g>
<!-- Galeria_Imagens_1&#45;&gt;&#39;Paginaconfirmacao&#39; -->
<g id="edge13" class="edge">
<title>Galeria_Imagens_1&#45;&gt;&#39;Paginaconfirmacao&#39;</title>
<path fill="none" stroke="black" d="M114.14,-143.7C108.34,-135.73 101.32,-126.1 94.89,-117.26"/>
<polygon fill="black" stroke="black" points="97.82,-115.35 89.1,-109.33 92.16,-119.47 97.82,-115.35"/>
</g>
<!-- Galeria_Imagens -->
<g id="node9" class="node">
<title>Galeria_Imagens</title>
<polygon fill="none" stroke="black" points="744.12,-180 611.38,-180 611.38,-144 744.12,-144 744.12,-180"/>
<text text-anchor="start" x="623.38" y="-156.95" font-family="Helvetica,sans-Serif" font-size="14.00">Galeria_Imagens</text>
</g>
<!-- Galeria_Imagens&#45;&gt;Login -->
<g id="edge14" class="edge">
<title>Galeria_Imagens&#45;&gt;Login</title>
<path fill="none" stroke="black" d="M611.18,-144.05C558.83,-130.73 487.59,-112.6 443.42,-101.35"/>
<polygon fill="black" stroke="black" points="444.55,-98.03 434,-98.95 442.83,-104.81 444.55,-98.03"/>
</g>
<!-- Lista_Tarefas -->
<g id="node10" class="node">
<title>Lista_Tarefas</title>
<polygon fill="none" stroke="black" points="422.25,-324 311.25,-324 311.25,-288 422.25,-288 422.25,-324"/>
<text text-anchor="start" x="323.25" y="-300.95" font-family="Helvetica,sans-Serif" font-size="14.00">Lista_Tarefas</text>
</g>
<!-- Lista_Tarefas&#45;&gt;Login -->
<g id="edge15" class="edge">
<title>Lista_Tarefas&#45;&gt;Login</title>
<path fill="none" stroke="black" d="M365.2,-287.7C363.04,-257.78 360.83,-194.74 374.75,-144 377.16,-135.21 381.2,-126.23 385.48,-118.21"/>
<polygon fill="black" stroke="black" points="388.44,-120.07 390.36,-109.65 382.36,-116.61 388.44,-120.07"/>
</g>
<!-- Lista_Tarefas&#45;&gt;CamaraGYmM -->
<g id="edge16" class="edge">
<title>Lista_Tarefas&#45;&gt;CamaraGYmM</title>
<path fill="none" stroke="black" d="M332.53,-287.52C314.74,-278.43 292.8,-267.22 273.76,-257.49"/>
<polygon fill="black" stroke="black" points="275.38,-254.38 264.88,-252.95 272.19,-260.62 275.38,-254.38"/>
</g>
<!-- Lista_filtros -->
<g id="node11" class="node">
<title>Lista_filtros</title>
<polygon fill="none" stroke="black" points="458.12,-396 361.38,-396 361.38,-360 458.12,-360 458.12,-396"/>
<text text-anchor="start" x="373.38" y="-372.95" font-family="Helvetica,sans-Serif" font-size="14.00">Lista_filtros</text>
</g>
<!-- Lista_filtros&#45;&gt;Login -->
<g id="edge17" class="edge">
<title>Lista_filtros&#45;&gt;Login</title>
<path fill="none" stroke="black" d="M430.91,-359.57C476.66,-319.77 576.75,-219.74 526.75,-144 508.42,-116.23 472.22,-102.96 443.64,-96.65"/>
<polygon fill="black" stroke="black" points="444.7,-93.29 434.21,-94.78 443.34,-100.15 444.7,-93.29"/>
</g>
<!-- Lista_filtros&#45;&gt;Lista_Tarefas -->
<g id="edge18" class="edge">
<title>Lista_filtros&#45;&gt;Lista_Tarefas</title>
<path fill="none" stroke="black" d="M399.12,-359.7C394.33,-351.9 388.56,-342.51 383.23,-333.83"/>
<polygon fill="black" stroke="black" points="386.27,-332.08 378.05,-325.39 380.3,-335.75 386.27,-332.08"/>
</g>
<!-- Pagina confirmacao -->
<g id="node12" class="node">
<title>Pagina confirmacao</title>
<polygon fill="none" stroke="black" points="647.38,-396 498.12,-396 498.12,-360 647.38,-360 647.38,-396"/>
<text text-anchor="start" x="510.12" y="-372.95" font-family="Helvetica,sans-Serif" font-size="14.00">Pagina confirmacao</text>
</g>
<!-- Pagina confirmacao&#45;&gt;Login -->
<g id="edge19" class="edge">
<title>Pagina confirmacao&#45;&gt;Login</title>
<path fill="none" stroke="black" d="M576.42,-359.54C584.2,-317.44 597.71,-209.04 546.75,-144 522.13,-112.58 477,-99.78 443.8,-94.57"/>
<polygon fill="black" stroke="black" points="444.5,-91.14 434.11,-93.24 443.54,-98.07 444.5,-91.14"/>
</g>
<!-- Pagina confirmacao&#45;&gt;Lista_Tarefas -->
<g id="edge20" class="edge">
<title>Pagina confirmacao&#45;&gt;Lista_Tarefas</title>
<path fill="none" stroke="black" d="M521.3,-359.52C493.17,-349.96 458.14,-338.05 428.54,-328"/>
<polygon fill="black" stroke="black" points="429.93,-324.77 419.33,-324.87 427.68,-331.4 429.93,-324.77"/>
</g>
</g>
</svg>
