<?xml version="1.0" encoding="UTF-8" standalone="no"?>
<!DOCTYPE svg PUBLIC "-//W3C//DTD SVG 1.1//EN"
 "http://www.w3.org/Graphics/SVG/1.1/DTD/svg11.dtd">
<!-- Generated by graphviz version 9.0.0 (20230911.1827)
 -->
<!-- Title: 14MarTablet Pages: 1 -->
<svg width="216pt" height="116pt"
 viewBox="0.00 0.00 215.50 116.00" xmlns="http://www.w3.org/2000/svg" xmlns:xlink="http://www.w3.org/1999/xlink">
<g id="graph0" class="graph" transform="scale(1 1) rotate(0) translate(4 112)">
<title>14MarTablet</title>
<polygon fill="white" stroke="none" points="-4,4 -4,-112 211.5,-112 211.5,4 -4,4"/>
<!-- Login -->
<g id="node1" class="node">
<title>Login</title>
<polygon fill="none" stroke="black" points="116.75,-108 57.5,-108 57.5,-72 116.75,-72 116.75,-108"/>
<text text-anchor="start" x="69.5" y="-84.95" font-family="Helvetica,sans-Serif" font-size="14.00">Login</text>
</g>
<!-- Home -->
<g id="node2" class="node">
<title>Home</title>
<polygon fill="none" stroke="black" points="62.25,-36 0,-36 0,0 62.25,0 62.25,-36"/>
<text text-anchor="start" x="12" y="-12.95" font-family="Helvetica,sans-Serif" font-size="14.00">Home</text>
</g>
<!-- Login&#45;&gt;Home -->
<g id="edge1" class="edge">
<title>Login&#45;&gt;Home</title>
<path fill="none" stroke="black" d="M73.28,-71.7C66.84,-63.64 59.04,-53.89 51.91,-44.98"/>
<polygon fill="black" stroke="black" points="54.73,-42.91 45.75,-37.29 49.27,-47.28 54.73,-42.91"/>
</g>
<!-- ReporPassword -->
<g id="node3" class="node">
<title>ReporPassword</title>
<polygon fill="none" stroke="black" points="207.5,-36 80.75,-36 80.75,0 207.5,0 207.5,-36"/>
<text text-anchor="start" x="92.75" y="-12.95" font-family="Helvetica,sans-Serif" font-size="14.00">ReporPassword</text>
</g>
<!-- Login&#45;&gt;ReporPassword -->
<g id="edge2" class="edge">
<title>Login&#45;&gt;ReporPassword</title>
<path fill="none" stroke="black" d="M101.21,-71.7C107.77,-63.64 115.71,-53.89 122.97,-44.98"/>
<polygon fill="black" stroke="black" points="125.64,-47.24 129.24,-37.28 120.21,-42.82 125.64,-47.24"/>
</g>
</g>
</svg>
